<?xml version="1.0" encoding="UTF-8" standalone="no"?>
<!-- Created with Inkscape (http://www.inkscape.org/) -->
<svg
   xmlns:dc="http://purl.org/dc/elements/1.1/"
   xmlns:cc="http://creativecommons.org/ns#"
   xmlns:rdf="http://www.w3.org/1999/02/22-rdf-syntax-ns#"
   xmlns:svg="http://www.w3.org/2000/svg"
   xmlns="http://www.w3.org/2000/svg"
   xmlns:sodipodi="http://sodipodi.sourceforge.net/DTD/sodipodi-0.dtd"
   xmlns:inkscape="http://www.inkscape.org/namespaces/inkscape"
   width="146.82436"
   height="106.09388"
   id="svg2"
   sodipodi:version="0.32"
   inkscape:version="0.46"
   sodipodi:docname="ma_v03.svg"
   inkscape:output_extension="org.inkscape.output.svg.inkscape"
   inkscape:export-filename="/home/damian/Escritorio/ma_v10.png"
   inkscape:export-xdpi="160"
   inkscape:export-ydpi="160"
   version="1.0">
  <defs
     id="defs4">
    <inkscape:perspective
       sodipodi:type="inkscape:persp3d"
       inkscape:vp_x="0 : 526.18109 : 1"
       inkscape:vp_y="0 : 1000 : 0"
       inkscape:vp_z="744.09448 : 526.18109 : 1"
       inkscape:persp3d-origin="372.04724 : 350.78739 : 1"
       id="perspective10" />
  </defs>
  <sodipodi:namedview
     id="base"
     pagecolor="#ffffff"
     bordercolor="#666666"
     borderopacity="1.0"
     inkscape:pageopacity="0.0"
     inkscape:pageshadow="2"
     inkscape:zoom="3.4827645"
     inkscape:cx="73.412179"
     inkscape:cy="53.04694"
     inkscape:document-units="px"
     inkscape:current-layer="layer1"
     showgrid="false"
     showguides="true"
     inkscape:guide-bbox="true"
     gridtolerance="6"
     guidetolerance="6"
     inkscape:window-width="1670"
     inkscape:window-height="971"
     inkscape:window-x="0"
     inkscape:window-y="25">
    <sodipodi:guide
       orientation="0,1"
       position="121.98342,685.56043"
       id="guide2388" />
    <sodipodi:guide
       orientation="0,1"
       position="194.21941,706.68605"
       id="guide2392" />
    <sodipodi:guide
       orientation="0,1"
       position="169.29071,702.36339"
       id="guide2396" />
    <sodipodi:guide
       orientation="0,1"
       position="214.00135,700.12786"
       id="guide2402" />
  </sodipodi:namedview>
  <metadata
     id="metadata7">
    <rdf:RDF>
      <cc:Work
         rdf:about="">
        <dc:format>image/svg+xml</dc:format>
        <dc:type
           rdf:resource="http://purl.org/dc/dcmitype/StillImage" />
      </cc:Work>
    </rdf:RDF>
  </metadata>
  <g
     inkscape:groupmode="layer"
     id="layer3"
     inkscape:label="nubes"
     transform="translate(17.381309,-11.196018)"
     style="display:none">
    <path
       style="fill:#ffffff;fill-opacity:1;stroke:#000000;stroke-width:0.5;stroke-linejoin:round;stroke-miterlimit:4;stroke-dasharray:none;stroke-opacity:1;display:inline"
       d="M 72.489398,14.521171 C 66.737018,14.521171 62.083168,16.520731 62.083168,18.973831 C 62.083168,19.280471 62.144398,19.585171 62.283288,19.874371 C 62.286318,19.880701 62.280188,19.893081 62.283288,19.899391 C 53.009898,20.525071 46.048568,23.127311 46.048568,26.253191 C 46.048568,29.845251 55.231528,32.757081 66.560848,32.757081 C 77.890158,32.757081 87.098138,29.845251 87.098138,26.253191 C 87.098138,24.430001 84.708758,22.782201 80.894418,21.600411 C 82.166028,20.863701 82.920638,19.958101 82.920638,18.973831 C 82.920638,16.520731 78.241768,14.521171 72.489398,14.521171 z"
       id="path3283" />
  </g>
  <g
     inkscape:groupmode="layer"
     id="layer4"
     inkscape:label="ovalo"
     style="display:inline"
     transform="translate(19.912559,-4.81868)">
    <path
       style="opacity:1;fill:#52b400;fill-opacity:1;stroke:#000000;stroke-width:0.57511842;stroke-linejoin:round;stroke-miterlimit:4;stroke-dasharray:none;stroke-opacity:1"
       d="M 59.9375,63.65625 C 57.51099,63.691502 55.053745,63.785816 52.5625,63.90625 C 12.702577,65.833191 -19.625,78.147278 -19.625,91.40625 C -19.625,100.44048 -4.6175028,107.59633 17.5625,110.625 C 17.522525,110.29901 17.5,109.95617 17.5,109.625 C 17.499999,96.366023 49.858827,84.051941 89.71875,82.125 C 102.41804,81.511081 105.12563,81.888846 124.71875,83.4375 C 135.94918,80.776288 95.365451,63.141558 59.9375,63.65625 z"
       id="path3170"
       sodipodi:nodetypes="csscsscc" />
    <path
       id="path3183"
       d="M 41.663983,83.727261 C 40.280301,83.747239 38.879093,83.800686 37.458497,83.868937 C 14.728957,84.960938 -3.705371,91.939356 -3.705371,99.453242 C -3.705371,104.57296 4.852435,108.62819 17.500257,110.34455 C 17.477462,110.15981 17.464617,109.96552 17.464617,109.77785 C 17.464617,102.26396 26.822629,94.906486 45.782315,89.047942 C 48.575691,88.184789 61.866254,83.435584 41.663983,83.727261 z"
       style="opacity:1;fill:#00c6bf;fill-opacity:1;stroke:#000000;stroke-width:0.57511836;stroke-linejoin:round;stroke-miterlimit:4;stroke-dasharray:none;stroke-opacity:1"
       sodipodi:nodetypes="csscssc" />
  </g>
  <g
     inkscape:label="sol"
     inkscape:groupmode="layer"
     id="layer1"
     style="display:inline"
     transform="translate(-91.385671,-264.5022)">
    <path
       sodipodi:type="arc"
       style="fill:#ffdc0d;fill-opacity:1;stroke:#000000;stroke-width:0.55765319;stroke-linejoin:round;stroke-miterlimit:4;stroke-dasharray:none;stroke-opacity:1;display:inline"
       id="path3180"
       sodipodi:cx="140.51144"
       sodipodi:cy="264.60983"
       sodipodi:rx="25.841185"
       sodipodi:ry="25.841185"
       d="M 166.35263,264.60983 A 25.841185,25.841185 0 1 1 114.67026,264.60983 A 25.841185,25.841185 0 1 1 166.35263,264.60983 z"
       transform="matrix(0.4399372,0,0,0.4399372,113.87313,159.65835)"
       inkscape:export-filename="/home/damian/Escritorio/pa.png"
       inkscape:export-xdpi="160.74001"
       inkscape:export-ydpi="160.74001" />
    <text
       xml:space="preserve"
       style="font-size:11.88730717px;font-style:normal;font-variant:normal;font-weight:bold;font-stretch:normal;fill:#000000;fill-opacity:1;stroke:#ffffff;stroke-width:0.40000001;stroke-linecap:butt;stroke-linejoin:miter;stroke-miterlimit:4;stroke-dasharray:none;stroke-opacity:1;font-family:Arial Black;-inkscape-font-specification:'Arial Black, Bold'"
       x="157.85948"
       y="303.25888"
       id="text3167"
       transform="scale(0.8760891,1.1414365)"><tspan
         sodipodi:role="line"
         id="tspan3169"
         x="157.85948"
         y="303.25888"
         style="stroke-width:0.40000001">Fundación</tspan><tspan
         sodipodi:role="line"
         x="157.85948"
         y="318.11801"
         id="tspan3171"
         style="stroke-width:0.40000001">MestizoAmérica</tspan></text>
  </g>
  <g
     inkscape:groupmode="layer"
     id="layer2"
     inkscape:label="MA"
     transform="translate(-91.385671,-264.5022)"
     style="display:inline">
    <rect
       style="fill:#ffffff;fill-opacity:1;stroke:none;stroke-width:2;stroke-linejoin:round;stroke-miterlimit:4;stroke-dasharray:none;stroke-opacity:1;display:inline"
       id="rect3215"
       width="9.0161505"
       height="12.294751"
       x="175.91734"
       y="300.80524"
       inkscape:export-filename="/home/damian/Escritorio/pa.png"
       inkscape:export-xdpi="160.74001"
       inkscape:export-ydpi="160.74001" />
    <path
       style="font-size:40px;font-style:normal;font-variant:normal;font-weight:bold;font-stretch:normal;fill:#6f3b00;fill-opacity:1;stroke:#000000;stroke-width:0.60000002;stroke-linecap:butt;stroke-linejoin:miter;stroke-miterlimit:4;stroke-dasharray:none;stroke-opacity:1;font-family:Arial Black;-inkscape-font-specification:'Arial Black, Bold'"
       d="M 137.73542,264.8022 L 107.98542,342.6772 C 113.17961,339.19528 122.0433,336.24067 133.23542,334.20845 L 134.79792,311.70845 L 137.95417,333.4272 C 141.45093,332.90123 145.14943,332.46098 148.98542,332.1147 L 153.67292,319.02095 L 155.98542,331.58345 C 160.17627,331.34292 164.51724,331.2171 168.95417,331.20845 L 174.26667,318.0522 L 184.64167,317.9897 L 188.48542,331.9897 C 195.54142,332.57947 202.09364,333.47857 207.95417,334.64595 L 179.67292,290.95845 L 163.95417,318.70845 L 155.54792,281.3022 L 145.29792,311.4897 L 137.73542,264.8022 z M 179.79792,303.7397 L 182.76667,311.8022 L 176.45417,311.8022 L 179.79792,303.7397 z"
       id="text2383" />
    <path
       style="fill:#ffffff;fill-opacity:1;fill-rule:evenodd;stroke:none;stroke-width:1px;stroke-linecap:butt;stroke-linejoin:miter;stroke-opacity:1;display:inline"
       d="M 137.13939,270.35302 L 131.33387,285.92809 C 131.33387,285.92809 135.90138,279.99833 136.30204,279.9182 C 136.7027,279.83807 138.99049,281.85976 138.99049,281.85976 L 137.13939,270.35302 z"
       id="path3272"
       inkscape:export-filename="/home/damian/Escritorio/pa.png"
       inkscape:export-xdpi="160"
       inkscape:export-ydpi="160"
       sodipodi:nodetypes="ccscc" />
    <path
       style="fill:#ffffff;fill-opacity:1;fill-rule:evenodd;stroke:none;stroke-width:1px;stroke-linecap:butt;stroke-linejoin:miter;stroke-opacity:1"
       d="M 179.64939,292.91938 L 175.64392,300.3402 L 180.31023,298.50257 L 186.38096,303.00942 L 179.64939,292.91938 z"
       id="path3275"
       sodipodi:nodetypes="ccccc"
       inkscape:export-filename="/home/damian/Escritorio/pa.png"
       inkscape:export-xdpi="160"
       inkscape:export-ydpi="160" />
    <path
       inkscape:export-ydpi="160"
       inkscape:export-xdpi="160"
       inkscape:export-filename="/home/damian/Escritorio/pa.png"
       id="path3281"
       d="M 155.30975,285.43614 L 152.44559,294.58373 C 152.44559,294.58373 153.34066,298.28722 153.6416,298.5636 C 153.71391,298.63001 157.6541,296.51158 157.6541,296.51158 L 155.30975,285.43614 z"
       style="fill:#ffffff;fill-opacity:1;fill-rule:evenodd;stroke:none;stroke-width:1px;stroke-linecap:butt;stroke-linejoin:miter;stroke-opacity:1;display:inline"
       sodipodi:nodetypes="ccscc" />
  </g>
</svg>
