<?xml version="1.0" encoding="UTF-8" standalone="no"?>
<!-- Created with Inkscape (http://www.inkscape.org/) -->
<svg
   xmlns:dc="http://purl.org/dc/elements/1.1/"
   xmlns:cc="http://creativecommons.org/ns#"
   xmlns:rdf="http://www.w3.org/1999/02/22-rdf-syntax-ns#"
   xmlns:svg="http://www.w3.org/2000/svg"
   xmlns="http://www.w3.org/2000/svg"
   xmlns:sodipodi="http://sodipodi.sourceforge.net/DTD/sodipodi-0.dtd"
   xmlns:inkscape="http://www.inkscape.org/namespaces/inkscape"
   width="744.09448"
   height="1052.3622"
   id="svg2"
   sodipodi:version="0.32"
   inkscape:version="0.46"
   sodipodi:docname="hoja_inicial.svg"
   inkscape:output_extension="org.inkscape.output.svg.inkscape"
   inkscape:export-filename="/home/damian/Escritorio/ma_v14.png"
   inkscape:export-xdpi="183.89"
   inkscape:export-ydpi="183.89"
   version="1.0"
   style="display:inline">
  <defs
     id="defs4">
    <inkscape:perspective
       sodipodi:type="inkscape:persp3d"
       inkscape:vp_x="0 : 526.18109 : 1"
       inkscape:vp_y="0 : 1000 : 0"
       inkscape:vp_z="744.09448 : 526.18109 : 1"
       inkscape:persp3d-origin="372.04724 : 350.78739 : 1"
       id="perspective10" />
  </defs>
  <sodipodi:namedview
     id="base"
     pagecolor="#ffffff"
     bordercolor="#666666"
     borderopacity="1.0"
     inkscape:pageopacity="0.0"
     inkscape:pageshadow="2"
     inkscape:zoom="0.53204251"
     inkscape:cx="366.28948"
     inkscape:cy="529.22154"
     inkscape:document-units="px"
     inkscape:current-layer="layer6"
     showgrid="false"
     showguides="true"
     inkscape:guide-bbox="true"
     gridtolerance="6"
     guidetolerance="10"
     inkscape:window-width="1680"
     inkscape:window-height="975"
     inkscape:window-x="0"
     inkscape:window-y="25"
     units="mm"
     inkscape:snap-guide="true">
    <sodipodi:guide
       orientation="1,0"
       position="22.770589,493.36275"
       id="guide3589" />
    <sodipodi:guide
       orientation="1,0"
       position="708.24328,484.58751"
       id="guide3595" />
    <sodipodi:guide
       orientation="0,1"
       position="-412.14936,1022.9606"
       id="guide3597" />
  </sodipodi:namedview>
  <metadata
     id="metadata7">
    <rdf:RDF>
      <cc:Work
         rdf:about="">
        <dc:format>image/svg+xml</dc:format>
        <dc:type
           rdf:resource="http://purl.org/dc/dcmitype/StillImage" />
      </cc:Work>
    </rdf:RDF>
  </metadata>
  <g
     inkscape:groupmode="layer"
     id="layer6"
     inkscape:label="header y footer"
     style="display:inline">
    <path
       style="fill:#fafafa;fill-opacity:1;stroke:none;stroke-width:2.29999995000000013;stroke-linejoin:round;stroke-miterlimit:4;stroke-opacity:1"
       d="M 143.77573,337.41388 C 256.51968,175.20979 370.40521,856.51393 514.64098,867.33973 C 657.39686,878.05519 709.81372,549.94456 709.81372,549.94456 L 711.17113,1016.5878 L 29.753677,1007.3474 C 29.753677,1007.3474 30.37881,500.55743 143.77573,337.41388 z"
       id="path4405"
       sodipodi:nodetypes="cscccz" />
    <path
       sodipodi:nodetypes="cscccz"
       id="path4403"
       d="M 143.77573,881.89849 C 256.51968,842.93792 366.333,987.7177 510.56876,990.3181 C 653.32465,992.8918 709.81372,932.94723 709.81372,932.94723 L 709.81372,988.435 L 28.396272,1016.1789 C 28.396272,1016.1789 30.37881,921.0847 143.77573,881.89849 z"
       style="fill:#0eff3f;fill-opacity:1;stroke:none;stroke-width:2.29999995;stroke-linejoin:round;stroke-miterlimit:4;stroke-opacity:1" />
    <path
       style="fill:#0effea;fill-opacity:1;stroke:none;stroke-width:2.29999995;stroke-linejoin:round;stroke-miterlimit:4;stroke-opacity:1"
       d="M 136.9887,926.98949 C 249.73266,888.02892 360.90337,991.7478 505.13914,994.3481 C 647.89502,996.9219 709.81372,961.39191 709.81372,961.39191 L 709.81372,1016.8797 L 29.753677,1016.8797 C 29.753677,1016.8797 23.591783,966.1757 136.9887,926.98949 z"
       id="rect3630"
       sodipodi:nodetypes="cscccz" />
    <path
       style="fill:#fafafa;fill-opacity:1;stroke:none;stroke-width:2.29999995000000013;stroke-linejoin:round;stroke-miterlimit:4;stroke-opacity:1"
       d="M 592.40796,721.09461 C 479.21851,894.01786 364.88299,202.32484 220.0773,177.62151 C 76.757337,177.62151 24.133356,498.76471 24.133356,498.76471 L 22.770589,29.401584 L 706.88056,29.401584 C 706.88056,29.401584 706.25295,548.17136 592.40796,721.09461 z"
       id="path2452"
       sodipodi:nodetypes="cscccz" />
    <path
       sodipodi:nodetypes="cscccz"
       id="path4643"
       d="M 591.04519,181.03041 C 477.85574,217.17857 363.52022,65.345839 218.71453,62.933244 C 75.39457,60.545236 22.770589,133.66666 22.770589,133.66666 L 21.407822,29.672412 L 705.51779,31.731695 C 705.51779,31.731695 704.89018,144.67288 591.04519,181.03041 z"
       style="fill:#e6e6e6;fill-opacity:1;stroke:none;stroke-width:2.29999995000000013;stroke-linejoin:round;stroke-miterlimit:4;stroke-opacity:1" />
    <path
       style="fill:#41dcff;fill-opacity:1;stroke:none;stroke-width:2.29999995;stroke-linejoin:round;stroke-miterlimit:4;stroke-opacity:1"
       d="M 591.04519,154.63903 C 477.85574,190.7872 367.60852,56.458494 222.80283,54.045806 C 79.482872,51.657892 22.770589,107.2753 22.770589,107.2753 L 22.770589,55.792973 L 706.88056,30.051795 C 706.88056,30.051795 704.89018,118.28152 591.04519,154.63903 z"
       id="path4645"
       sodipodi:nodetypes="cscccz" />
    <path
       sodipodi:nodetypes="cscccz"
       id="path4647"
       d="M 597.85904,112.80297 C 484.66959,148.95114 373.0596,52.719311 228.25391,50.306716 C 84.933951,47.918709 22.770589,80.88393 22.770589,80.88393 L 22.770589,29.401583 L 705.51779,29.401583 C 705.51779,29.401583 711.70403,76.445462 597.85904,112.80297 z"
       style="fill:#fffb8b;fill-opacity:1;stroke:none;stroke-width:2.29999995;stroke-linejoin:round;stroke-miterlimit:4;stroke-opacity:1" />
  </g>
  <g
     inkscape:groupmode="layer"
     id="layer9"
     inkscape:label="footer-texto"
     sodipodi:insensitive="true">
    <text
       xml:space="preserve"
       style="font-size:14px;font-style:normal;font-weight:normal;text-align:start;text-anchor:start;fill:#000000;fill-opacity:1;stroke:none;stroke-width:1px;stroke-linecap:butt;stroke-linejoin:miter;stroke-opacity:1;font-family:Bitstream Vera Sans"
       x="86.406761"
       y="980.8363"
       id="text4500"><tspan
         sodipodi:role="line"
         id="tspan4502"
         x="86.406761"
         y="980.8363">www.mestizoamerica.org.ar</tspan><tspan
         sodipodi:role="line"
         x="86.406761"
         y="998.3363"
         id="tspan4504">contaco@mestizoamerica.com.ar</tspan></text>
  </g>
  <g
     inkscape:groupmode="layer"
     id="layer7"
     inkscape:label="ondas"
     style="display:none">
    <text
       xml:space="preserve"
       style="font-size:20px;font-style:normal;font-weight:normal;text-align:end;text-anchor:end;fill:#000000;fill-opacity:1;stroke:none;stroke-width:1px;stroke-linecap:butt;stroke-linejoin:miter;stroke-opacity:1;font-family:Bitstream Vera Sans"
       x="246.10358"
       y="403.00455"
       id="text4427"><tspan
         sodipodi:role="line"
         id="tspan4429"
         x="246.10358"
         y="403.00455" /></text>
    <flowRoot
       xml:space="preserve"
       id="flowRoot4435"
       style="font-size:20px;font-style:normal;font-weight:normal;text-align:end;text-anchor:end;fill:#000000;fill-opacity:1;stroke:none;stroke-width:1px;stroke-linecap:butt;stroke-linejoin:miter;stroke-opacity:1;font-family:Bitstream Vera Sans"><flowRegion
         id="flowRegion4437"><rect
           id="rect4439"
           width="475.89908"
           height="435.87018"
           x="93.400757"
           y="254.74939" /></flowRegion><flowPara
         id="flowPara4441" /></flowRoot>    <flowRoot
       xml:space="preserve"
       id="flowRoot4459"
       style="font-size:20px;font-style:normal;font-weight:normal;text-align:end;text-anchor:end;fill:#000000;fill-opacity:1;stroke:none;stroke-width:1px;stroke-linecap:butt;stroke-linejoin:miter;stroke-opacity:1;font-family:Bitstream Vera Sans"><flowRegion
         id="flowRegion4461"><rect
           id="rect4463"
           width="50.406757"
           height="81.540344"
           x="425.49231"
           y="548.29462" /></flowRegion><flowPara
         id="flowPara4465" /></flowRoot>    <path
       style="opacity:0.45;fill:#f0f0f0;fill-opacity:1;stroke:none;stroke-width:12.77499962;stroke-linejoin:round;stroke-miterlimit:4;stroke-dasharray:none;stroke-opacity:1"
       d="M 207.23385,192.90011 C 130.1844,193.15254 75.94163,212.06781 68.52558,247.24386 C 62.17979,277.34335 91.3658,313.45185 143.18795,346.83761 C 143.20522,346.75293 143.22797,346.6722 143.2458,346.58761 C 155.41574,288.86282 293.69089,274.88694 451.90423,315.40011 C 527.63411,334.792 588.51653,357.55863 641.8145,400.59492 C 653.63956,342.8876 535.19758,256.54961 377.18401,216.08761 C 315.38193,200.26215 256.62452,192.73829 207.23385,192.90011 z"
       id="path4425"
       sodipodi:nodetypes="cscsscsc" />
    <path
       id="path4486"
       d="M 277.16891,308.53816 C 213.03022,308.69433 167.87662,320.39689 161.70324,342.1597 C 156.42078,360.78174 180.71624,383.12145 223.85483,403.77664 C 223.86921,403.72426 223.88815,403.6743 223.903,403.62197 C 234.03368,367.90863 349.13881,359.26201 480.84118,384.3268 C 543.88142,396.32423 599.33519,413.89342 638.92922,432.85473 C 650.33661,398.27843 562.16657,355.23743 418.64142,322.88387 C 367.50441,311.35652 318.28344,308.43805 277.16891,308.53816 z"
       style="opacity:0.45;fill:#e6e6e6;fill-opacity:1;stroke:none;stroke-width:12.77499962;stroke-linejoin:round;stroke-miterlimit:4;stroke-dasharray:none;stroke-opacity:1"
       sodipodi:nodetypes="cscsscsc" />
  </g>
  <g
     inkscape:groupmode="layer"
     id="layer5"
     inkscape:label="logo"
     style="display:inline">
    <g
       id="g4572"
       transform="matrix(0.605975,0,0,0.605975,105.96779,129.20168)">
      <text
         transform="scale(0.8760891,1.1414364)"
         id="text3167"
         y="66.835342"
         x="733.71783"
         style="font-size:44.71788788px;font-style:normal;font-variant:normal;font-weight:bold;font-stretch:normal;fill:#000000;fill-opacity:1;stroke:none;stroke-width:0.29999998;stroke-linecap:butt;stroke-linejoin:miter;stroke-miterlimit:4;stroke-dasharray:none;stroke-opacity:1;display:inline;font-family:Arial Black;-inkscape-font-specification:'Arial Black, Bold'"
         xml:space="preserve"><tspan
           style="text-align:end;text-anchor:end;stroke:none;stroke-width:0.29999998;stroke-miterlimit:4;stroke-dasharray:none"
           y="66.835342"
           x="733.71783"
           id="tspan3169"
           sodipodi:role="line" /><tspan
           style="text-align:end;text-anchor:end;stroke:none;stroke-width:0.29999998;stroke-miterlimit:4;stroke-dasharray:none"
           id="tspan3171"
           y="122.7327"
           x="733.71783"
           sodipodi:role="line">MestizoAmérica</tspan></text>
      <text
         xml:space="preserve"
         style="font-size:44.71788788px;font-style:normal;font-variant:normal;font-weight:bold;font-stretch:normal;fill:#000000;fill-opacity:1;stroke:none;stroke-width:0.29999998;stroke-linecap:butt;stroke-linejoin:miter;stroke-miterlimit:4;stroke-dasharray:none;stroke-opacity:1;display:inline;font-family:Arial Black;-inkscape-font-specification:'Arial Black, Bold'"
         x="555.34833"
         y="25.758406"
         id="text3872"
         transform="scale(0.8760891,1.1414364)"><tspan
           sodipodi:role="line"
           id="tspan3874"
           x="555.34833"
           y="25.758406"
           style="text-align:end;text-anchor:end;stroke:none;stroke-width:0.29999998;stroke-miterlimit:4;stroke-dasharray:none" /><tspan
           sodipodi:role="line"
           x="555.34833"
           y="74.729378"
           id="tspan3876"
           style="font-size:37.61818314px;text-align:end;text-anchor:end;stroke:none;stroke-width:0.29999998;stroke-miterlimit:4;stroke-dasharray:none">Fundación</tspan></text>
    </g>
    <g
       id="g4506"
       transform="translate(47.977283,87.451931)">
      <path
         sodipodi:nodetypes="csscsscc"
         id="path3170"
         d="M 177.03372,134.84161 C 173.08095,134.89903 169.07812,135.05268 165.01988,135.24886 C 100.08829,138.38784 47.426827,158.44743 47.426827,180.04622 C 47.426827,194.76293 71.873968,206.41978 108.00508,211.35347 C 107.93995,210.82243 107.90327,210.26394 107.90327,209.72447 C 107.90327,188.12566 160.61562,168.06609 225.54722,164.92711 C 246.2343,163.92704 250.64495,164.54242 282.56205,167.06517 C 300.85636,162.73007 234.74567,134.00318 177.03372,134.84161 z"
         style="fill:#52b400;fill-opacity:1;stroke:#000000;stroke-width:0.57511842;stroke-linejoin:round;stroke-miterlimit:4;stroke-dasharray:none;stroke-opacity:1;display:inline" />
      <g
         transform="matrix(1.6289949,0,0,1.6289949,79.395852,31.145906)"
         id="g2401"
         style="display:inline">
        <path
           id="path3183"
           d="M 42.830338,84.027855 C 40.094605,83.570857 36.125271,83.203278 33.832734,83.091988 C 17.223041,82.285681 -3.4218917,87.041528 -7.438038,94.284934 C -11.215385,101.09765 4.852435,108.62819 17.500257,110.34455 C 17.477462,110.15981 17.464617,109.96552 17.464617,109.77785 C 17.464617,102.26396 26.822629,94.906486 45.782315,89.047942 C 48.575691,88.184789 56.29905,86.843975 42.830338,84.027855 z"
           style="opacity:1;fill:#00c6bf;fill-opacity:1;stroke:#000000;stroke-width:0.35305104;stroke-linejoin:round;stroke-miterlimit:4;stroke-dasharray:none;stroke-opacity:1"
           sodipodi:nodetypes="csscssc" />
      </g>
      <path
         inkscape:export-ydpi="160.74001"
         inkscape:export-xdpi="160.74001"
         inkscape:export-filename="/home/damian/Escritorio/pa.png"
         transform="matrix(0.9307155,0,0,0.9307155,73.540528,-192.8241)"
         d="M 166.35263,264.60983 A 25.841185,25.841185 0 1 1 114.67026,264.60983 A 25.841185,25.841185 0 1 1 166.35263,264.60983 z"
         sodipodi:ry="25.841185"
         sodipodi:rx="25.841185"
         sodipodi:cy="264.60983"
         sodipodi:cx="140.51144"
         id="path3180"
         style="fill:#ffdc0d;fill-opacity:1;stroke:#000000;stroke-width:0.26359543;stroke-linejoin:round;stroke-miterlimit:4;stroke-dasharray:none;stroke-opacity:1;display:inline"
         sodipodi:type="arc" />
      <rect
         inkscape:export-ydpi="160.74001"
         inkscape:export-xdpi="160.74001"
         inkscape:export-filename="/home/damian/Escritorio/pa.png"
         y="98.132988"
         x="184.66005"
         height="20.028088"
         width="14.687263"
         id="rect3215"
         style="fill:#ffffff;fill-opacity:1;stroke:none;stroke-width:2;stroke-linejoin:round;stroke-miterlimit:4;stroke-dasharray:none;stroke-opacity:1;display:inline" />
      <path
         id="text2383"
         d="M 122.46189,39.484209 L 73.999285,166.34219 C 82.460594,160.67016 96.8995,155.85711 115.13141,152.54664 L 117.67671,115.89425 L 122.81823,151.27398 C 128.51443,150.41718 134.53927,149.70002 140.78808,149.13593 L 148.42399,127.80628 L 152.19104,148.27052 C 159.01792,147.8787 166.08933,147.67374 173.31707,147.65965 L 181.97111,126.22819 L 198.87193,126.12637 L 205.13338,148.9323 C 216.62756,149.89304 227.3011,151.35766 236.84787,153.25932 L 190.77786,82.092607 L 165.1721,127.29721 L 151.47836,66.362625 L 134.78116,115.53791 L 122.46189,39.484209 z M 190.98148,102.9132 L 195.81756,116.04697 L 185.53453,116.04697 L 190.98148,102.9132 z"
         style="font-size:40px;font-style:normal;font-variant:normal;font-weight:bold;font-stretch:normal;fill:#6f3b00;fill-opacity:1;stroke:#000000;stroke-width:0.59999996;stroke-linecap:butt;stroke-linejoin:miter;stroke-miterlimit:4;stroke-dasharray:none;stroke-opacity:1;display:inline;font-family:Arial Black;-inkscape-font-specification:'Arial Black, Bold'" />
      <path
         sodipodi:nodetypes="ccscc"
         inkscape:export-ydpi="160"
         inkscape:export-xdpi="160"
         inkscape:export-filename="/home/damian/Escritorio/pa.png"
         id="path3272"
         d="M 121.49096,48.526467 L 112.03379,73.898176 C 112.03379,73.898176 119.47424,64.238628 120.12692,64.108096 C 120.77959,63.977565 124.50639,67.270888 124.50639,67.270888 L 121.49096,48.526467 z"
         style="fill:#ffffff;fill-opacity:1;fill-rule:evenodd;stroke:none;stroke-width:1px;stroke-linecap:butt;stroke-linejoin:miter;stroke-opacity:1;display:inline" />
      <path
         inkscape:export-ydpi="160"
         inkscape:export-xdpi="160"
         inkscape:export-filename="/home/damian/Escritorio/pa.png"
         sodipodi:nodetypes="ccccc"
         id="path3275"
         d="M 190.73953,85.286952 L 184.21464,97.37543 L 191.81603,94.38194 L 201.70522,101.72357 L 190.73953,85.286952 z"
         style="fill:#ffffff;fill-opacity:1;fill-rule:evenodd;stroke:none;stroke-width:1px;stroke-linecap:butt;stroke-linejoin:miter;stroke-opacity:1;display:inline" />
      <path
         sodipodi:nodetypes="ccscc"
         style="fill:#ffffff;fill-opacity:1;fill-rule:evenodd;stroke:none;stroke-width:1px;stroke-linecap:butt;stroke-linejoin:miter;stroke-opacity:1;display:inline"
         d="M 151.09038,73.096792 L 146.42468,87.99817 C 146.42468,87.99817 147.88274,94.031136 148.37297,94.481358 C 148.49076,94.589539 154.90931,91.138628 154.90931,91.138628 L 151.09038,73.096792 z"
         id="path3281"
         inkscape:export-filename="/home/damian/Escritorio/pa.png"
         inkscape:export-xdpi="160"
         inkscape:export-ydpi="160" />
    </g>
  </g>
  <g
     inkscape:groupmode="layer"
     id="layer8"
     inkscape:label="textos"
     style="display:inline">
    <flowRoot
       xml:space="preserve"
       id="flowRoot4447"
       style="font-size:20px;font-style:normal;font-weight:normal;text-align:justify;text-anchor:start;fill:#000000;fill-opacity:1;stroke:none;stroke-width:1px;stroke-linecap:butt;stroke-linejoin:miter;stroke-opacity:1;display:inline;font-family:Bitstream Vera Sans"
       transform="matrix(1,0,0,1.1187902,-38.585071,50.053155)"><flowRegion
         id="flowRegion4449"><rect
           id="rect4451"
           width="527.78833"
           height="606.36359"
           x="148.25517"
           y="202.86009"
           style="text-align:justify;text-anchor:start" /></flowRegion><flowPara
         id="flowPara4457"
         style="font-size:19.03899956px" /></flowRoot>    <text
       xml:space="preserve"
       style="font-size:20px;font-style:normal;font-weight:normal;text-align:end;text-anchor:end;fill:#000000;fill-opacity:1;stroke:none;stroke-width:1px;stroke-linecap:butt;stroke-linejoin:miter;stroke-opacity:1;font-family:Bitstream Vera Sans"
       x="604.17627"
       y="808.99139"
       id="text4517"><tspan
         sodipodi:role="line"
         id="tspan4519"
         x="604.17627"
         y="808.99139"
         style="font-size:14px">Sara Eliana Riquelme</tspan><tspan
         sodipodi:role="line"
         x="604.17627"
         y="826.49139"
         id="tspan4521"
         style="font-size:14px">Directora.</tspan></text>
    <path
       style="opacity:1;fill:#000080;fill-opacity:1;stroke:none;stroke-width:12.77499962;stroke-linejoin:round;stroke-miterlimit:4;stroke-dasharray:none;stroke-opacity:1"
       id="path4568"
       d="M 477.77791,752.4081 C 479.02941,748.20621 479.71063,743.85723 480.15609,739.50251 C 480.33157,737.7872 480.45042,736.06657 480.59758,734.34859 C 481.3254,725.88598 481.0803,717.36399 479.66369,708.98332 C 478.7512,703.585 478.24813,702.22852 476.83817,697.08165 C 476.23871,695.24101 475.1019,691.29862 474.02185,689.38005 C 473.76383,688.9217 472.90005,688.75144 472.94429,688.22732 C 472.97771,687.83152 474.05176,687.7147 474.12957,688.10422 C 474.35581,689.23697 473.68444,690.37716 473.60382,691.52946 C 473.48555,693.21968 473.55745,694.91785 473.53426,696.61204 C 473.62826,699.04106 473.6701,701.47266 473.81628,703.8991 C 474.21617,710.53713 474.97154,718.2691 475.71418,724.8039 C 476.69118,733.4008 477.89532,742.36506 479.21025,750.90927 C 479.90394,755.41675 480.6877,759.9099 481.42643,764.41023 C 482.21224,768.78424 482.96341,773.16462 483.78384,777.53227 C 484.55332,781.62863 485.38639,785.71279 486.196,789.8014 C 488.51623,801.51888 490.90469,813.2226 493.22532,824.94002 C 493.49119,826.38251 494.46907,831.05663 494.45798,832.92889 C 494.45392,833.61346 494.40076,834.34878 494.06313,834.94429 C 493.78626,835.43263 493.25371,835.76983 492.73109,835.97475 C 488.69194,837.5585 488.90797,837.14759 484.98333,836.73195 C 483.40196,836.47671 481.81903,836.23098 480.23923,835.96623 C 476.0252,835.26003 471.81804,834.51324 467.60411,833.80639 C 462.63715,832.97322 456.99774,832.07334 452.05989,831.15765 C 449.32807,830.65106 446.60715,830.08739 443.88078,829.55227 C 436.39811,827.95631 428.91534,826.27858 421.62057,823.94598 C 418.01471,822.79296 414.09798,821.37319 410.70141,819.6498 C 409.29287,818.93513 407.97781,818.04949 406.61602,817.24933 C 405.57552,816.40453 404.43932,815.66555 403.49451,814.71494 C 402.68631,813.90179 401.90905,813.01629 401.39186,811.99309 C 400.34891,809.9297 400.30585,807.76184 401.68543,805.77611 C 404.26634,802.06118 408.83498,800.06791 412.49052,797.8809 C 416.33763,796.1544 420.12088,794.27792 424.03184,792.70143 C 428.78311,790.78621 433.6236,789.09739 438.46123,787.41222 C 452.31992,782.58461 464.05506,778.99042 478.15475,774.51302 C 508.09063,765.0068 493.94053,769.63308 523.60043,759.62666 C 541.70692,753.30906 559.62494,746.44091 577.22052,738.81092 C 582.09319,736.69797 591.75841,732.30491 596.95695,729.67672 C 598.78401,728.75301 600.55088,727.71478 602.34784,726.73382 C 603.40645,725.63405 603.52366,726.14107 602.97326,725.30341 L 604.92154,724.23041 C 605.28459,726.6018 605.28207,724.90656 601.17926,727.6742 C 599.49086,728.56542 597.82883,729.5085 596.11406,730.34786 C 590.87983,732.90997 582.0983,736.76187 577.12316,738.88774 C 559.51057,746.41358 541.67119,753.40315 523.56382,759.65512 C 493.90136,769.66231 508.05651,765.03434 478.1181,774.54142 C 459.76443,780.3697 441.36384,785.95106 423.47969,793.13891 C 420.15364,794.47569 416.90975,796.00846 413.62478,797.44323 C 410.13346,799.55004 405.82958,801.44735 403.36189,804.98817 C 402.02672,806.90395 402.01096,809.01906 402.98039,811.04967 C 403.46721,812.06939 404.21414,812.95882 404.99313,813.77735 C 405.90446,814.73493 407.00943,815.48745 408.01759,816.3425 C 409.3462,817.15687 410.62532,818.05813 412.00343,818.78561 C 415.26512,820.50743 419.26879,822.02819 422.73677,823.18338 C 429.96344,825.5906 437.39719,827.29853 444.83861,828.88417 C 447.5711,829.41391 450.29726,829.97742 453.03609,830.47339 C 457.94554,831.36243 463.77262,832.24936 468.7195,833.0232 C 470.19966,833.25473 479.72921,834.74746 481.58641,835.01739 C 483.20968,835.25332 484.8375,835.45677 486.46304,835.67646 C 487.68862,835.76163 488.94667,835.63904 490.13977,835.93196 C 490.47556,836.01439 490.44604,836.75694 490.79135,836.73907 C 492.30357,836.66078 492.7275,834.8639 492.80781,833.78656 C 492.9592,831.75558 492.19692,827.27583 491.9659,825.61014 C 490.92355,819.13733 490.75327,817.9335 489.5301,811.04251 C 486.78035,795.55122 483.67094,780.12598 481.04493,764.61253 C 480.29976,760.11533 479.52255,755.62333 478.80942,751.12094 C 477.43251,742.42784 476.20508,733.87126 475.05695,725.1482 C 474.22197,718.80428 473.25258,710.96846 472.64292,704.50553 C 472.41824,702.12375 472.27331,699.73512 472.0885,697.34992 C 472.04271,695.68332 471.942,694.01732 471.95113,692.35012 C 471.9638,690.03496 471.41134,687.59839 474.74738,687.15064 C 475.27583,687.07971 475.41992,687.99266 475.63841,688.47902 C 476.49649,690.38908 477.6595,694.63897 478.16856,696.35949 C 479.49707,701.4746 480.00629,702.99452 480.90022,708.33211 C 482.30003,716.69028 482.63858,725.17871 482.03659,733.62897 C 481.92581,735.33101 481.84111,737.03495 481.70424,738.73509 C 481.36077,743.00126 480.79513,747.25423 479.82107,751.42476 L 477.77791,752.4081 z" />
    <path
       style="opacity:1;fill:#000080;fill-opacity:1;stroke:none;stroke-width:12.77499962;stroke-linejoin:round;stroke-miterlimit:4;stroke-dasharray:none;stroke-opacity:1"
       id="path4570"
       d="M 505.15735,743.52543 C 505.02754,745.29565 505.31906,747.07231 505.85281,748.79181 C 506.02866,749.35832 506.25451,749.9146 506.45536,750.47599 C 507.09236,751.91647 507.74737,753.36465 508.66682,754.71356 C 508.90966,755.06984 509.51137,755.93301 510.05214,756.17229 C 510.27704,756.27181 510.56427,756.22627 510.82033,756.25325 C 510.68572,756.26832 510.38008,756.40098 510.41651,756.29847 C 510.55575,755.90665 510.92682,755.58988 511.18198,755.23559 C 511.39907,754.69294 511.65851,754.15959 511.83328,753.60766 C 512.22416,752.37323 512.56614,750.55822 512.72246,749.30935 C 512.81602,748.56188 512.84735,747.81044 512.9098,747.06099 C 512.9571,745.17982 512.75985,743.29601 512.23256,741.45843 C 512.11649,741.05394 511.72897,739.93637 511.42025,739.49231 C 511.34457,739.38345 511.19624,739.31709 511.08424,739.22947 C 511.41474,739.14882 511.81864,738.80611 512.07577,738.98752 C 512.32785,739.16536 511.88846,739.49976 511.83991,739.76262 C 511.76521,740.16707 511.72392,740.57572 511.707,740.98416 C 511.65427,742.25715 511.7232,743.09893 512.06997,744.37427 C 512.25353,745.04934 512.53576,745.70566 512.76865,746.37136 C 513.10963,747.0325 513.39839,747.71163 513.7916,748.35476 C 514.84866,750.08365 516.282,751.66287 518.10122,752.94998 C 518.57788,753.28722 519.06895,753.61958 519.6171,753.88202 C 520.05131,754.0899 520.55429,754.1932 521.02289,754.34879 C 521.43436,754.30158 521.87421,754.33381 522.25729,754.20716 C 522.3543,754.17509 522.13347,754.04677 522.17016,753.96953 C 522.38608,753.51493 522.7817,753.12047 522.99034,752.6638 C 523.50266,751.54241 523.87613,749.78665 524.0258,748.64171 C 524.13034,747.84203 524.14294,747.03663 524.20151,746.2341 C 524.16879,745.42575 524.16585,744.61633 524.10337,743.80906 C 524.04481,743.05255 523.94779,742.29789 523.83857,741.54483 C 523.61546,740.00659 523.29926,738.45593 522.7562,736.96427 C 522.66016,736.70046 522.53368,736.44402 522.42242,736.1839 C 522.30214,736.04203 521.0653,734.81873 523.27347,735.51472 C 523.55138,735.60232 523.27,735.98482 523.3055,736.21762 C 523.42024,736.96976 523.80582,738.41488 524.03477,739.07644 C 524.25107,739.70144 524.527,740.31286 524.77312,740.93107 C 525.79773,743.21038 527.23649,745.3669 529.29143,747.18212 C 529.61977,747.47216 529.95708,747.75849 530.33136,748.01217 C 530.59011,748.18755 530.89805,748.3128 531.1814,748.46311 C 531.39166,748.43938 532.00051,748.46888 531.8122,748.39192 C 531.57314,748.29422 531.15068,748.5669 531.00311,748.39025 C 530.80151,748.14893 531.10207,747.8162 531.09052,747.52803 C 531.0445,746.3798 530.58478,745.28987 530.14622,744.2072 C 530.0025,743.93684 529.85785,743.66677 529.71505,743.39612 C 529.6343,743.24307 529.53037,743.09603 529.47559,742.9361 C 529.46244,742.89769 529.46858,742.82989 529.51827,742.82159 C 530.10978,742.72266 530.7193,742.5507 531.31599,742.62831 C 531.71683,742.68043 531.96222,743.01544 532.3066,743.1842 C 532.75118,743.40206 533.22172,743.58567 533.67927,743.7864 C 535.79118,744.48473 538.38084,745.46423 540.72928,744.91016 C 541.30967,744.77323 541.88945,744.57134 542.34717,744.26034 C 542.5789,744.1029 542.5664,743.81174 542.676,743.58744 C 543.03331,743.02657 543.46806,742.49202 543.74792,741.90483 C 544.49446,740.3385 544.80801,738.70117 544.95204,737.04091 C 545.13942,734.88084 544.99975,733.2464 544.73041,731.09036 C 544.6065,730.09843 544.42104,729.1118 544.26635,728.12251 C 543.88734,726.29699 543.69547,725.19619 543.21784,723.45878 C 543.14733,723.2023 542.67868,722.84474 542.95715,722.69865 C 543.32744,722.50437 544.06767,722.59622 544.26756,722.90803 C 544.71347,723.60365 544.46315,724.45702 544.57976,725.22987 C 544.76976,726.48914 544.98481,727.746 545.18732,729.00407 C 546.92358,739.55057 549.85247,749.95429 553.1865,760.25486 C 553.87272,762.37494 554.60328,764.48608 555.31167,766.60169 C 559.25928,777.54835 555.51233,767.2554 559.15125,777.00276 C 559.6172,778.25084 560.06566,779.50288 560.52286,780.75294 L 559.85032,781.0386 C 559.44743,779.76573 559.06347,778.48911 558.64166,777.22 C 557.47545,773.71115 556.16948,770.23128 555.04973,766.71272 C 553.5265,762.00303 552.30728,758.30616 550.87026,753.55811 C 548.43809,745.52205 546.21388,737.44226 544.48784,729.29342 C 544.20874,728.06699 543.9407,726.83899 543.65054,725.61413 C 543.47167,724.85913 542.23364,722.80158 544.11721,722.21746 C 544.44962,722.11438 544.1464,722.7772 544.19001,723.05491 C 544.27165,723.57479 545.06082,727.64292 545.08818,727.78498 C 545.55216,730.78494 546.03821,733.66325 545.83531,736.69862 C 545.72516,738.34641 545.4643,739.97355 544.77285,741.54061 C 544.51368,742.12798 544.10136,742.66686 543.76561,743.22998 C 542.47209,744.1177 541.4613,745.10084 539.76256,745.47171 C 537.40434,745.98654 534.77526,744.99521 532.64412,744.31525 C 532.17066,744.11887 531.6884,743.93497 531.22376,743.7261 C 530.86218,743.56355 530.25658,743.52056 530.16728,743.20182 C 530.07989,742.8899 530.67074,742.69416 530.85477,742.40914 C 530.88217,742.36672 530.6734,742.37116 530.67294,742.41869 C 530.66852,742.88204 531.2829,743.28281 531.25195,743.73289 C 531.67866,744.82281 532.14013,745.92482 532.25283,747.07008 C 532.28183,747.3648 532.43163,747.70516 532.23327,747.95672 C 531.87508,748.41095 531.2887,748.74328 530.71031,749.02622 C 530.52977,749.11455 530.28461,749.01814 530.07176,749.0141 C 529.80218,748.84982 529.51025,748.70582 529.26304,748.52125 C 528.90498,748.25391 528.57881,747.96074 528.26225,747.66306 C 526.27666,745.79586 524.86906,743.62116 523.79742,741.3506 C 523.53539,740.73665 523.24884,740.12879 523.01134,739.50875 C 522.77792,738.89936 522.31083,737.40314 522.12772,736.69897 C 522.06493,736.45749 521.79717,736.17308 521.97457,735.96947 C 522.27554,735.62401 522.81636,735.40049 523.33797,735.30985 C 523.51407,735.27925 523.49324,735.56468 523.57087,735.6921 C 523.66546,735.96197 523.77295,736.22927 523.85462,736.5017 C 524.3135,738.0322 524.57464,739.60182 524.7733,741.16406 C 524.8697,741.92219 524.96092,742.68109 525.01737,743.44168 C 525.07741,744.25073 525.08757,745.06156 525.12267,745.87149 C 525.0037,747.89698 525.05521,748.49829 524.6142,750.46072 C 524.48395,751.04035 523.98364,753.02544 523.34215,753.59448 C 522.76407,754.10727 522.0114,754.5048 521.22742,754.80685 C 520.85471,754.95046 520.3994,754.86081 519.98539,754.8878 C 519.52677,754.71753 519.03409,754.59472 518.60949,754.377 C 518.07185,754.10131 517.58841,753.76306 517.12007,753.41853 C 514.64007,751.59415 512.94977,749.27129 511.8111,746.77944 C 511.56512,746.11539 511.2738,745.46062 511.07317,744.78731 C 510.67858,743.46308 510.60448,742.73743 510.5976,741.41973 C 510.59549,741.0172 510.61878,740.61444 510.65745,740.21305 C 510.68306,739.94729 510.57419,739.62632 510.79023,739.42027 C 511.16375,739.06403 511.77983,738.92054 512.27464,738.67068 C 512.37045,738.77968 512.49545,738.87608 512.56206,738.99768 C 512.83096,739.48856 513.15887,740.58061 513.26867,741.02784 C 513.72646,742.89224 513.9129,744.79239 513.85563,746.68989 C 513.79387,747.44093 513.75861,748.19359 513.67035,748.94301 C 513.53201,750.11761 513.20469,752.04418 512.87929,753.2196 C 512.76918,753.61739 512.20507,755.48171 511.64686,755.91562 C 511.10904,756.33368 510.3599,756.54281 509.71643,756.85641 C 509.45369,756.80634 509.15412,756.82253 508.92824,756.70621 C 508.3993,756.43383 507.83757,755.56333 507.59891,755.18623 C 506.72819,753.81048 506.10543,752.34794 505.4481,750.90548 C 505.24118,750.34443 505.01367,749.78777 504.82735,749.22232 C 504.2684,747.52599 503.93024,745.78781 503.87748,744.03572 L 505.15735,743.52543 z" />
    <flowRoot
       xml:space="preserve"
       id="flowRoot4605"
       style="font-size:16px;font-style:normal;font-weight:normal;text-align:justify;text-anchor:start;fill:#000000;fill-opacity:1;stroke:none;stroke-width:1px;stroke-linecap:butt;stroke-linejoin:miter;stroke-opacity:1;font-family:Bitstream Vera Sans"
       transform="translate(35.438726,99.541177)"><flowRegion
         id="flowRegion4607"><rect
           id="rect4609"
           width="415.56323"
           height="406.0755"
           x="117.64804"
           y="278.16217"
           style="font-size:16px;text-align:justify;text-anchor:start" /></flowRegion><flowPara
         id="flowPara4611">La FUNDACIÓN MESTIZOAMÉRICA se crea para desarrollar un trabajo creciente y sostenido teniendo como principales componentes los aportes culturales de todos los miembros de nuestra sociedad, tan rica y diversa. En este caso, esto implica convocar a todas aquellas personas con posibilidades de aportar sus conocimientos y su trabajo en todas las áreas que pudieran contribuir al rescate de la cultura y la educación de nuestro pueblo. En otras palabras, la fundación convoca a profesionales, no profesionales, docentes, no docentes, personas con todo tipo de capacidades, artistas, artesanos, agricultores, músicos, políticos, dirigentes, vecinos en general.</flowPara></flowRoot>    <flowRoot
       xml:space="preserve"
       id="flowRoot4613"
       style="font-size:16px;font-style:normal;font-weight:normal;text-align:end;text-anchor:end;fill:#000000;fill-opacity:1;stroke:none;stroke-width:1px;stroke-linecap:butt;stroke-linejoin:miter;stroke-opacity:1;font-family:Bitstream Vera Sans"><flowRegion
         id="flowRegion4615"><rect
           id="rect4617"
           width="516.13336"
           height="265.65686"
           x="-15.180392"
           y="342.67883" /></flowRegion><flowPara
         id="flowPara4619" /></flowRoot>  </g>
</svg>
